<?xml version="1.0" encoding="utf-8"?>
<!-- Generator: Adobe Illustrator 16.0.0, SVG Export Plug-In . SVG Version: 6.00 Build 0)  -->
<!DOCTYPE svg PUBLIC "-//W3C//DTD SVG 1.1//EN" "http://www.w3.org/Graphics/SVG/1.1/DTD/svg11.dtd">
<svg version="1.1" id="Layer_1" xmlns="http://www.w3.org/2000/svg" xmlns:xlink="http://www.w3.org/1999/xlink" x="0px" y="0px"
	 width="600px" height="200px" viewBox="0 0 600 200" enable-background="new 0 0 600 200" xml:space="preserve">
<path fill="#FFFFFF" d="M105.898,173.872c-0.059-0.019-2.106-0.103-2.038-0.137h457.003c0-5.085,0-142.98-0.284-142.98L99.48,30.899
	l-68.463,69.935"/>
<polygon fill="#2C4D86" points="109.275,36.694 175.483,101.114 107.648,167.79 554.967,167.79 554.967,36.694 "/>
<polygon fill="#DC2627" points="78.223,100.667 58.949,119.576 39.729,100.667 58.949,81.711 "/>
<polygon fill="#DC2627" points="99.738,78.591 80.457,97.501 61.182,78.572 80.457,59.597 "/>
<polygon fill="#DC2627" points="122.135,56.953 102.941,75.899 83.646,56.953 102.941,38.003 "/>
<polygon fill="#DC2627" points="100.178,122.769 80.922,141.701 61.688,122.769 80.922,103.806 "/>
<polygon fill="#DC2627" points="121.635,100.667 102.405,119.576 83.117,100.667 102.417,81.711 "/>
<polygon fill="#DC2627" points="144.104,79.072 124.815,97.985 105.583,79.072 124.815,60.087 "/>
<polygon fill="#DC2627" points="122.124,145.259 102.853,164.256 83.589,145.259 102.853,126.354 "/>
<polygon fill="#DC2627" points="143.583,123.188 124.291,142.153 105.032,123.188 124.291,104.199 "/>
<polygon fill="#DC2627" points="166.045,101.593 146.751,120.548 127.523,101.593 146.751,82.618 "/>
<path fill="#FFFFFF" d="M227.846,80.28v4.223c-1.609,0.778-3.243,1.378-4.888,1.814c-1.666,0.406-3.28,0.625-4.933,0.625
	c-1.529,0-3.016-0.218-4.471-0.57c-1.389-0.412-2.733-0.977-4.003-1.754c-2.034-1.277-3.586-2.891-4.713-4.848
	c-1.142-1.981-1.701-4.139-1.701-6.439c0-1.768,0.361-3.419,1.13-5.092c0.748-1.622,1.796-3.089,3.133-4.35
	c1.495-1.268,3.074-2.269,4.91-2.891c1.79-0.655,3.818-0.963,5.996-0.963c1.546,0,3.073,0.155,4.555,0.485
	c1.502,0.323,3.115,0.83,4.743,1.567v4.068c-1.702-0.936-3.341-1.577-4.887-2.032c-1.514-0.406-2.958-0.603-4.411-0.603
	c-3.185,0-5.822,0.938-7.896,2.838c-2.068,1.88-3.102,4.238-3.102,7.105c0,2.835,0.995,5.188,3.04,7.066
	c2.064,1.883,4.661,2.866,7.713,2.866c1.616,0,3.193-0.28,4.845-0.782C224.521,82.11,226.163,81.321,227.846,80.28"/>
<polygon fill="#FFFFFF" points="247.269,86.422 247.269,60.386 263.682,60.386 263.682,63.717 251.163,63.717 251.163,71.644 
	263.355,71.644 263.355,74.992 251.163,74.992 251.163,83.116 264.091,83.116 264.091,86.422 "/>
<path fill="#FFFFFF" d="M283.925,86.422V60.386h8.01c2.751,0,4.885,0.675,6.375,1.879c1.466,1.256,2.223,2.998,2.223,5.283
	c0,1.701-0.402,3.079-1.222,4.127c-0.811,1.041-2.096,1.85-3.869,2.367c0.417,0.187,0.859,0.563,1.295,0.923
	c0.363,0.405,0.887,1.039,1.533,1.953l6.609,9.504h-4.692l-4.663-6.782c-1.412-2.06-2.554-3.405-3.424-3.929
	c-0.856-0.579-1.878-0.901-3.113-0.901h-1.131v11.612H283.925z M287.856,71.675h3.226c1.847,0,3.178-0.321,4.095-0.986
	c0.875-0.663,1.354-1.701,1.354-3.048c0-1.453-0.437-2.45-1.274-3.106c-0.885-0.651-2.267-0.931-4.175-0.931h-3.226V71.675z"/>
<path fill="#FFFFFF" d="M317.712,86.422l11.804-26.037h2.844l11.986,26.037h-4.037l-3.482-7.624H325.21l-3.497,7.624H317.712z
	 M326.716,75.416h8.499l-4.315-9.333L326.716,75.416z M328.375,57.883l4.076-6.473h3.488l-5.523,6.473H328.375z"/>
<polygon fill="#FFFFFF" points="361.338,86.422 361.338,60.386 364.739,60.386 374.574,71.354 384.391,60.386 387.76,60.386 
	387.76,86.422 383.998,86.422 383.998,66.158 374.574,76.626 365.141,66.158 365.141,86.422 "/>
<rect x="408.714" y="60.389" fill="#FFFFFF" width="3.878" height="26.036"/>
<path fill="#FFFFFF" d="M456.783,80.28v4.223c-1.62,0.778-3.218,1.378-4.879,1.814c-1.657,0.406-3.328,0.625-4.949,0.625
	c-1.531,0-3.012-0.218-4.441-0.57c-1.432-0.412-2.761-0.977-4.031-1.754c-2.029-1.277-3.604-2.891-4.73-4.848
	c-1.148-1.981-1.682-4.139-1.682-6.439c0-1.768,0.387-3.419,1.093-5.092c0.752-1.622,1.806-3.089,3.181-4.35
	c1.444-1.268,3.087-2.269,4.892-2.891c1.808-0.655,3.802-0.963,6.017-0.963c1.501,0,3.014,0.155,4.527,0.485
	c1.532,0.323,3.093,0.83,4.772,1.567v4.068c-1.753-0.936-3.359-1.577-4.884-2.032c-1.526-0.406-2.99-0.603-4.416-0.603
	c-3.218,0-5.849,0.938-7.915,2.838c-2.081,1.88-3.114,4.238-3.114,7.105c0,2.835,1.033,5.188,3.096,7.066
	c2.03,1.883,4.616,2.866,7.688,2.866c1.57,0,3.177-0.28,4.798-0.782C453.454,82.11,455.1,81.321,456.783,80.28"/>
<path fill="#FFFFFF" d="M472.395,86.422l11.866-26.037h2.822l11.995,26.037h-4.041l-3.534-7.624h-11.602l-3.481,7.624H472.395z
	 M481.443,75.416h8.469l-4.302-9.333L481.443,75.416z"/>
<path fill="#FFFFFF" d="M215.653,144.675c-6.018-1.464-10.639-4.123-13.896-7.997c-3.288-3.829-4.935-8.558-4.935-14.104
	c0-3.263,0.617-6.348,1.855-9.143c1.201-2.784,3.018-5.288,5.435-7.474c2.353-2.085,4.99-3.672,7.975-4.717
	c2.963-1.031,6.293-1.54,9.909-1.54c3.705,0,7.073,0.509,10.031,1.563c2.997,1.021,5.655,2.629,8.012,4.693
	c2.334,2.101,4.139,4.547,5.394,7.338c1.247,2.746,1.836,5.695,1.836,8.777c0,5.369-1.377,9.936-4.087,13.688
	c-2.781,3.706-6.766,6.503-12.038,8.342c1.87,1.04,3.78,1.772,5.761,2.345c1.991,0.564,3.912,0.843,5.657,0.843
	c0.716,0,1.44-0.063,2.137-0.209c0.735-0.12,1.39-0.354,2.075-0.634l0.948,1.133l-8.357,7.344h-0.625
	c-3.944,0-7.963-0.856-11.984-2.663C222.678,150.465,218.993,147.955,215.653,144.675 M208.772,122.574
	c0,3.931,1.254,7.172,3.756,9.744c2.479,2.54,5.65,3.837,9.467,3.837c3.908,0,7.073-1.297,9.544-3.837
	c2.501-2.572,3.734-5.813,3.734-9.744c0-3.95-1.233-7.223-3.734-9.772c-2.471-2.567-5.636-3.818-9.544-3.818
	c-3.817,0-6.989,1.251-9.467,3.818C210.026,115.352,208.772,118.624,208.772,122.574"/>
<path fill="#FFFFFF" d="M298.595,100.396v25.36c0,6.216-1.917,11.043-5.801,14.534c-3.858,3.483-9.212,5.202-16.124,5.202
	c-6.923,0-12.293-1.719-16.136-5.202c-3.846-3.491-5.782-8.318-5.782-14.534v-25.36h11.656v24.915c0,3.502,0.911,6.185,2.667,8.078
	c1.729,1.849,4.312,2.821,7.659,2.821c3.306,0,5.882-0.936,7.624-2.821c1.759-1.823,2.628-4.53,2.628-8.078v-24.915H298.595z"/>
<rect x="308.743" y="100.396" fill="#FFFFFF" width="11.964" height="44.279"/>
<polygon fill="#FFFFFF" points="331.1,144.675 331.1,100.396 342.701,100.396 342.701,136.155 362.684,136.155 362.684,144.675 "/>
<polygon fill="#FFFFFF" points="368.898,144.675 368.898,100.396 379.13,100.396 393.983,118.218 408.937,100.396 419.195,100.396 
	419.195,144.675 407.804,144.675 407.804,117.229 393.983,133.488 380.334,117.229 380.334,144.675 "/>
<polygon fill="#FFFFFF" points="429.273,144.675 429.273,100.396 460.292,100.396 460.292,108.536 440.899,108.536 440.899,117.593 
	459.396,117.593 459.396,125.839 440.899,125.839 440.899,136.385 460.844,136.385 460.844,144.675 "/>
<path fill="#FFFFFF" d="M468.556,141.21v-9.884c3.532,2.063,6.433,3.489,8.815,4.34c2.398,0.812,4.758,1.206,7.014,1.206
	c2.266,0,3.975-0.289,5.157-0.975c1.152-0.662,1.742-1.639,1.742-2.968c0-1.019-0.382-1.901-1.088-2.543
	c-0.727-0.671-2.46-1.408-5.105-2.313c-6.589-2.217-11.176-4.47-13.636-6.802c-2.48-2.281-3.715-5.262-3.715-8.838
	c0-3.75,1.608-6.816,4.838-9.172c3.235-2.411,7.437-3.562,12.665-3.562c2.623,0,5.269,0.311,7.894,0.917
	c2.664,0.607,5.3,1.513,7.864,2.685v9.064c-3.124-1.467-5.921-2.575-8.365-3.314c-2.491-0.714-4.736-1.084-6.764-1.084
	c-2.225,0-3.896,0.309-5.087,0.945c-1.121,0.605-1.734,1.445-1.734,2.607c0,0.92,0.521,1.816,1.588,2.588
	c0.979,0.823,2.553,1.655,4.697,2.372c0.451,0.154,1.109,0.414,2.028,0.708c4.389,1.6,7.577,2.891,9.494,4.054
	c2.029,1.167,3.507,2.68,4.545,4.535c1.016,1.861,1.566,3.995,1.566,6.539c0,4.074-1.641,7.302-4.86,9.659
	c-3.244,2.352-7.768,3.515-13.502,3.515c-2.847,0-5.643-0.377-8.332-1.081C473.61,143.66,471.018,142.609,468.556,141.21"/>
</svg>
